<svg xmlns="http://www.w3.org/2000/svg" xmlns:xlink="http://www.w3.org/1999/xlink" width="500" zoomAndPan="magnify" viewBox="0 0 375 374.999991" height="500" preserveAspectRatio="xMidYMid meet" version="1.0"><defs><clipPath id="331fa74335"><path d="M 17 35 L 365 35 L 365 343 L 17 343 Z M 17 35 " clip-rule="nonzero"/></clipPath><clipPath id="1ad0f678d1"><path d="M 11.21875 167.8125 L 275.921875 29.25 L 370.515625 209.953125 L 105.808594 348.515625 Z M 11.21875 167.8125 " clip-rule="nonzero"/></clipPath><clipPath id="fadcb2ea14"><path d="M 26.5 159.8125 L 260.554688 37.292969 C 264.609375 35.171875 269.339844 34.746094 273.707031 36.109375 C 278.074219 37.476562 281.71875 40.519531 283.839844 44.574219 L 362.429688 194.714844 C 364.554688 198.765625 364.976562 203.496094 363.613281 207.863281 C 362.246094 212.230469 359.203125 215.875 355.148438 217.996094 L 121.09375 340.515625 C 117.039062 342.636719 112.308594 343.0625 107.941406 341.695312 C 103.578125 340.332031 99.929688 337.285156 97.808594 333.234375 L 19.21875 183.09375 C 17.097656 179.039062 16.671875 174.308594 18.035156 169.945312 C 19.402344 165.578125 22.445312 161.933594 26.5 159.8125 Z M 26.5 159.8125 " clip-rule="nonzero"/></clipPath><clipPath id="0e548e4c99"><path d="M 25 258 L 49 258 L 49 292 L 25 292 Z M 25 258 " clip-rule="nonzero"/></clipPath><clipPath id="60d472afc3"><path d="M 23.410156 261.921875 L 33.566406 256.605469 L 50.347656 288.664062 L 40.191406 293.980469 Z M 23.410156 261.921875 " clip-rule="nonzero"/></clipPath><clipPath id="6dc08d5bf5"><path d="M 28.488281 259.261719 C 31.292969 257.792969 34.757812 258.878906 36.226562 261.683594 L 47.679688 283.5625 C 49.144531 286.367188 48.0625 289.828125 45.257812 291.296875 C 42.453125 292.765625 38.988281 291.683594 37.519531 288.878906 L 26.066406 267 C 24.601562 264.195312 25.683594 260.730469 28.488281 259.261719 Z M 28.488281 259.261719 " clip-rule="nonzero"/></clipPath><clipPath id="67f23fdbec"><path d="M 38 268 L 74 268 L 74 294 L 38 294 Z M 38 268 " clip-rule="nonzero"/></clipPath><clipPath id="d83c19549f"><path d="M 42.183594 295.769531 L 35.601562 277.972656 L 69.527344 265.429688 L 76.105469 283.226562 Z M 42.183594 295.769531 " clip-rule="nonzero"/></clipPath><clipPath id="f7811e5610"><path d="M 38.894531 286.871094 C 38.019531 284.511719 38.121094 281.898438 39.171875 279.613281 C 40.226562 277.328125 42.140625 275.554688 44.5 274.683594 L 60.621094 268.722656 C 62.980469 267.851562 65.589844 267.949219 67.875 269.003906 C 70.160156 270.054688 71.9375 271.972656 72.808594 274.332031 C 73.679688 276.691406 73.582031 279.300781 72.527344 281.585938 C 71.476562 283.871094 69.558594 285.644531 67.199219 286.519531 L 51.082031 292.476562 C 48.722656 293.351562 46.113281 293.25 43.824219 292.199219 C 41.539062 291.148438 39.765625 289.230469 38.894531 286.871094 Z M 38.894531 286.871094 " clip-rule="nonzero"/></clipPath><clipPath id="a39c3aa45d"><path d="M 1 30 L 372 30 L 372 344.777344 L 1 344.777344 Z M 1 30 " clip-rule="nonzero"/></clipPath></defs><g clip-path="url(#331fa74335)"><g clip-path="url(#1ad0f678d1)"><g clip-path="url(#fadcb2ea14)"><path fill="#ffffff" d="M 11.21875 167.8125 L 275.921875 29.25 L 370.515625 209.953125 L 105.808594 348.515625 Z M 11.21875 167.8125 " fill-opacity="1" fill-rule="nonzero"/></g></g></g><g clip-path="url(#0e548e4c99)"><g clip-path="url(#60d472afc3)"><g clip-path="url(#6dc08d5bf5)"><path fill="#ffffff" d="M 23.410156 261.921875 L 33.566406 256.605469 L 50.328125 288.625 L 40.171875 293.941406 Z M 23.410156 261.921875 " fill-opacity="1" fill-rule="nonzero"/></g></g></g><g clip-path="url(#67f23fdbec)"><g clip-path="url(#d83c19549f)"><g clip-path="url(#f7811e5610)"><path fill="#ffffff" d="M 42.183594 295.769531 L 35.601562 277.972656 L 69.527344 265.429688 L 76.105469 283.226562 Z M 42.183594 295.769531 " fill-opacity="1" fill-rule="nonzero"/></g></g></g><path fill="#f97316" d="M 39.796875 251.148438 C 49.484375 246.039062 61.613281 249.84375 66.785156 259.621094 C 71.933594 269.398438 68.214844 281.550781 58.519531 286.65625 C 48.808594 291.777344 36.703125 287.964844 31.554688 278.183594 C 26.394531 268.417969 30.113281 256.269531 39.796875 251.148438 M 32.570312 176.539062 L 258.164062 57.632812 C 272.578125 50.039062 275.945312 54.929688 282.808594 67.984375 L 350.8125 196.988281 C 356.089844 207.007812 352.28125 219.511719 342.324219 224.765625 L 232.257812 282.785156 L 255.992188 178.015625 C 257.332031 173.226562 252.300781 168.863281 247.726562 170.851562 L 210.113281 187.457031 L 220.445312 101.863281 C 221.03125 96.882812 214.945312 93.3125 210.890625 96.277344 L 147.945312 142.34375 C 146.859375 143.121094 145.429688 146.136719 145.527344 147.5 L 151.0625 262.839844 C 151.269531 267.027344 155.984375 269.800781 159.757812 267.914062 L 199.84375 248.082031 L 198.777344 300.433594 L 124.757812 339.453125 C 120.882812 341.480469 115.644531 343.75 111.589844 341.769531 L 17.734375 296.03125 C 11.703125 293.085938 8.699219 287.335938 9.660156 280.691406 L 23.21875 186.097656 C 23.878906 181.628906 28.722656 178.585938 32.570312 176.539062 Z M 32.570312 176.539062 " fill-opacity="1" fill-rule="evenodd"/><g clip-path="url(#a39c3aa45d)"><path fill="#1f1a17" d="M 47.789062 255.449219 C 46.417969 255.449219 45.09375 255.773438 43.871094 256.417969 C 41.902344 257.457031 40.445312 259.234375 39.769531 261.390625 C 39.101562 263.546875 39.320312 265.824219 40.363281 267.8125 C 42.472656 271.800781 47.726562 273.492188 51.746094 271.359375 C 53.742188 270.308594 55.207031 268.539062 55.882812 266.382812 C 56.550781 264.21875 56.34375 261.9375 55.296875 259.960938 C 53.839844 257.179688 50.960938 255.449219 47.789062 255.449219 M 47.863281 281.941406 C 41.121094 281.941406 34.996094 278.25 31.867188 272.296875 C 29.613281 268.058594 29.164062 263.164062 30.585938 258.550781 C 32.015625 253.9375 35.144531 250.167969 39.394531 247.914062 C 47.957031 243.382812 59.324219 246.949219 63.808594 255.476562 C 66.058594 259.734375 66.5 264.613281 65.070312 269.230469 C 63.628906 273.84375 60.496094 277.625 56.230469 279.859375 C 53.671875 281.226562 50.765625 281.941406 47.863281 281.941406 Z M 270.769531 39.789062 C 268.054688 39.789062 265.453125 40.425781 263.050781 41.6875 L 34.605469 162.117188 C 30.027344 164.523438 27.566406 166.699219 27.273438 168.589844 L 10.855469 276.390625 C 10.140625 281.199219 12.246094 285.1875 16.640625 287.320312 L 114.851562 334.710938 C 116.972656 335.699219 121.558594 333.773438 124.328125 332.332031 L 193.800781 295.703125 L 194.65625 253.589844 L 161.265625 270.113281 C 154.667969 273.386719 145.929688 268.214844 145.570312 260.898438 L 139.976562 144.433594 C 139.804688 141.480469 142.003906 136.839844 144.394531 135.101562 L 207.941406 88.609375 C 212.296875 85.414062 218.910156 86.335938 222.550781 90.414062 C 224.601562 92.730469 225.539062 95.679688 225.175781 98.703125 L 215.789062 176.738281 L 246.035156 163.390625 C 250.652344 161.402344 256.109375 162.933594 259.125 166.914062 C 261.191406 169.636719 261.855469 173.0625 260.945312 176.3125 L 237.457031 272.683594 L 352.785156 211.894531 C 360.910156 207.605469 364.027344 197.507812 359.753906 189.378906 L 285.601562 48.675781 C 282.703125 43.191406 277.023438 39.789062 270.769531 39.789062 Z M 116.425781 344.628906 C 114.332031 344.628906 112.394531 344.203125 110.660156 343.359375 L 12.457031 295.976562 C 4.242188 291.992188 0.00390625 283.941406 1.355469 274.945312 L 17.773438 167.148438 C 18.824219 160.273438 25.324219 156.125 30.132812 153.609375 L 258.578125 33.183594 C 271.058594 26.636719 287.566406 31.824219 294.101562 44.191406 L 368.253906 184.894531 C 375.011719 197.714844 370.085938 213.648438 357.269531 220.410156 L 232.507812 286.164062 C 230.839844 287.035156 228.800781 286.851562 227.308594 285.703125 C 225.8125 284.539062 225.148438 282.601562 225.605469 280.769531 L 251.652344 173.878906 C 251.171875 172.347656 250.730469 172.097656 250.324219 172.097656 L 211.941406 188.953125 C 210.382812 189.6875 208.539062 189.4375 207.132812 188.425781 C 205.742188 187.390625 205.027344 185.703125 205.238281 183.980469 L 215.636719 97.566406 C 215.039062 96.433594 214.542969 96.199219 214.113281 96.199219 L 150.050781 142.875 C 150.113281 142.914062 149.632812 143.9375 149.5625 144.371094 L 155.164062 260.429688 C 155.203125 261.078125 155.964844 261.597656 156.574219 261.597656 L 197.492188 241.457031 C 199 240.730469 200.78125 240.816406 202.195312 241.710938 C 203.625 242.617188 204.46875 244.183594 204.433594 245.867188 L 203.351562 298.726562 C 203.3125 300.480469 202.339844 302.066406 200.792969 302.886719 L 128.796875 340.832031 C 125.429688 342.601562 120.988281 344.628906 116.425781 344.628906 Z M 116.425781 344.628906 " fill-opacity="1" fill-rule="evenodd"/></g></svg>